<svg width="300" height="56" viewBox="0 0 300 56" fill="none" xmlns="http://www.w3.org/2000/svg">
<g filter="url(#filter0_d_4_8)">
<path d="M169.585 11.3H162.625V8H180.445V11.3H173.485V29H169.585V11.3ZM198.141 12.98V29H194.571V26.96C193.971 27.68 193.221 28.24 192.321 28.64C191.421 29.02 190.451 29.21 189.411 29.21C187.271 29.21 185.581 28.62 184.341 27.44C183.121 26.24 182.511 24.47 182.511 22.13V12.98H186.261V21.62C186.261 23.06 186.581 24.14 187.221 24.86C187.881 25.56 188.811 25.91 190.011 25.91C191.351 25.91 192.411 25.5 193.191 24.68C193.991 23.84 194.391 22.64 194.391 21.08V12.98H198.141ZM203.051 6.74H206.801V29H203.051V6.74ZM218.263 22.13L215.473 24.77V29H211.723V6.74H215.473V20.18L223.243 12.98H227.743L221.053 19.7L228.373 29H223.813L218.263 22.13ZM230.648 12.98H234.398V29H230.648V12.98ZM232.538 10.34C231.858 10.34 231.288 10.13 230.828 9.71C230.368 9.27 230.138 8.73 230.138 8.09C230.138 7.45 230.368 6.92 230.828 6.5C231.288 6.06 231.858 5.84 232.538 5.84C233.218 5.84 233.788 6.05 234.248 6.47C234.708 6.87 234.938 7.38 234.938 8C234.938 8.66 234.708 9.22 234.248 9.68C233.808 10.12 233.238 10.34 232.538 10.34ZM248.2 12.8C249.76 12.8 251.15 13.14 252.37 13.82C253.61 14.5 254.58 15.46 255.28 16.7C255.98 17.94 256.33 19.37 256.33 20.99C256.33 22.61 255.98 24.05 255.28 25.31C254.58 26.55 253.61 27.51 252.37 28.19C251.15 28.87 249.76 29.21 248.2 29.21C247.1 29.21 246.09 29.02 245.17 28.64C244.27 28.26 243.51 27.69 242.89 26.93V29H239.32V6.74H243.07V14.93C243.71 14.23 244.46 13.7 245.32 13.34C246.2 12.98 247.16 12.8 248.2 12.8ZM247.78 26C249.16 26 250.29 25.54 251.17 24.62C252.07 23.7 252.52 22.49 252.52 20.99C252.52 19.49 252.07 18.28 251.17 17.36C250.29 16.44 249.16 15.98 247.78 15.98C246.88 15.98 246.07 16.19 245.35 16.61C244.63 17.01 244.06 17.59 243.64 18.35C243.22 19.11 243.01 19.99 243.01 20.99C243.01 21.99 243.22 22.87 243.64 23.63C244.06 24.39 244.63 24.98 245.35 25.4C246.07 25.8 246.88 26 247.78 26ZM265.802 12.8C268.162 12.8 269.962 13.37 271.202 14.51C272.462 15.63 273.092 17.33 273.092 19.61V29H269.552V27.05C269.092 27.75 268.432 28.29 267.572 28.67C266.732 29.03 265.712 29.21 264.512 29.21C263.312 29.21 262.262 29.01 261.362 28.61C260.462 28.19 259.762 27.62 259.262 26.9C258.782 26.16 258.542 25.33 258.542 24.41C258.542 22.97 259.072 21.82 260.132 20.96C261.212 20.08 262.902 19.64 265.202 19.64H269.342V19.4C269.342 18.28 269.002 17.42 268.322 16.82C267.662 16.22 266.672 15.92 265.352 15.92C264.452 15.92 263.562 16.06 262.682 16.34C261.822 16.62 261.092 17.01 260.492 17.51L259.022 14.78C259.862 14.14 260.872 13.65 262.052 13.31C263.232 12.97 264.482 12.8 265.802 12.8ZM265.292 26.48C266.232 26.48 267.062 26.27 267.782 25.85C268.522 25.41 269.042 24.79 269.342 23.99V22.13H265.472C263.312 22.13 262.232 22.84 262.232 24.26C262.232 24.94 262.502 25.48 263.042 25.88C263.582 26.28 264.332 26.48 265.292 26.48ZM292.611 12.98L285.111 30.29C284.411 32.03 283.561 33.25 282.561 33.95C281.561 34.67 280.351 35.03 278.931 35.03C278.131 35.03 277.341 34.9 276.561 34.64C275.781 34.38 275.141 34.02 274.641 33.56L276.141 30.8C276.501 31.14 276.921 31.41 277.401 31.61C277.901 31.81 278.401 31.91 278.901 31.91C279.561 31.91 280.101 31.74 280.521 31.4C280.961 31.06 281.361 30.49 281.721 29.69L281.991 29.06L275.001 12.98H278.901L283.941 24.83L289.011 12.98H292.611Z" fill="#E9B949"/>
</g>
<g filter="url(#filter1_d_4_8)">
<path d="M13.8134 31.3C12.1934 31.3 10.6234 31.07 9.1034 30.61C7.6034 30.15 6.4134 29.54 5.5334 28.78L6.8834 25.75C7.7434 26.43 8.7934 26.99 10.0334 27.43C11.2934 27.85 12.5534 28.06 13.8134 28.06C15.3734 28.06 16.5334 27.81 17.2934 27.31C18.0734 26.81 18.4634 26.15 18.4634 25.33C18.4634 24.73 18.2434 24.24 17.8034 23.86C17.3834 23.46 16.8434 23.15 16.1834 22.93C15.5234 22.71 14.6234 22.46 13.4834 22.18C11.8834 21.8 10.5834 21.42 9.5834 21.04C8.6034 20.66 7.7534 20.07 7.0334 19.27C6.3334 18.45 5.9834 17.35 5.9834 15.97C5.9834 14.81 6.2934 13.76 6.9134 12.82C7.5534 11.86 8.5034 11.1 9.7634 10.54C11.0434 9.98 12.6034 9.7 14.4434 9.7C15.7234 9.7 16.9834 9.86 18.2234 10.18C19.4634 10.5 20.5334 10.96 21.4334 11.56L20.2034 14.59C19.2834 14.05 18.3234 13.64 17.3234 13.36C16.3234 13.08 15.3534 12.94 14.4134 12.94C12.8734 12.94 11.7234 13.2 10.9634 13.72C10.2234 14.24 9.8534 14.93 9.8534 15.79C9.8534 16.39 10.0634 16.88 10.4834 17.26C10.9234 17.64 11.4734 17.94 12.1334 18.16C12.7934 18.38 13.6934 18.63 14.8334 18.91C16.3934 19.27 17.6734 19.65 18.6734 20.05C19.6734 20.43 20.5234 21.02 21.2234 21.82C21.9434 22.62 22.3034 23.7 22.3034 25.06C22.3034 26.22 21.9834 27.27 21.3434 28.21C20.7234 29.15 19.7734 29.9 18.4934 30.46C17.2134 31.02 15.6534 31.3 13.8134 31.3ZM34.9006 14.8C36.9206 14.8 38.5406 15.39 39.7606 16.57C40.9806 17.75 41.5906 19.5 41.5906 21.82V31H37.8406V22.3C37.8406 20.9 37.5106 19.85 36.8506 19.15C36.1906 18.43 35.2506 18.07 34.0306 18.07C32.6506 18.07 31.5606 18.49 30.7606 19.33C29.9606 20.15 29.5606 21.34 29.5606 22.9V31H25.8106V8.74H29.5606V16.84C30.1806 16.18 30.9406 15.68 31.8406 15.34C32.7606 14.98 33.7806 14.8 34.9006 14.8ZM61.5542 23.08C61.5542 23.34 61.5342 23.71 61.4942 24.19H48.9242C49.1442 25.37 49.7142 26.31 50.6342 27.01C51.5742 27.69 52.7342 28.03 54.1142 28.03C55.8742 28.03 57.3242 27.45 58.4642 26.29L60.4742 28.6C59.7542 29.46 58.8442 30.11 57.7442 30.55C56.6442 30.99 55.4042 31.21 54.0242 31.21C52.2642 31.21 50.7142 30.86 49.3742 30.16C48.0342 29.46 46.9942 28.49 46.2542 27.25C45.5342 25.99 45.1742 24.57 45.1742 22.99C45.1742 21.43 45.5242 20.03 46.2242 18.79C46.9442 17.53 47.9342 16.55 49.1942 15.85C50.4542 15.15 51.8742 14.8 53.4542 14.8C55.0142 14.8 56.4042 15.15 57.6242 15.85C58.8642 16.53 59.8242 17.5 60.5042 18.76C61.2042 20 61.5542 21.44 61.5542 23.08ZM53.4542 17.8C52.2542 17.8 51.2342 18.16 50.3942 18.88C49.5742 19.58 49.0742 20.52 48.8942 21.7H57.9842C57.8242 20.54 57.3342 19.6 56.5142 18.88C55.6942 18.16 54.6742 17.8 53.4542 17.8ZM68.7263 17.32C69.8063 15.64 71.7063 14.8 74.4263 14.8V18.37C74.1063 18.31 73.8163 18.28 73.5563 18.28C72.0963 18.28 70.9563 18.71 70.1363 19.57C69.3163 20.41 68.9063 21.63 68.9063 23.23V31H65.1563V14.98H68.7263V17.32ZM84.1475 24.13L81.3575 26.77V31H77.6075V8.74H81.3575V22.18L89.1275 14.98H93.6275L86.9375 21.7L94.2575 31H89.6975L84.1475 24.13ZM105.77 14.8C107.79 14.8 109.41 15.39 110.63 16.57C111.85 17.75 112.46 19.5 112.46 21.82V31H108.71V22.3C108.71 20.9 108.38 19.85 107.72 19.15C107.06 18.43 106.12 18.07 104.9 18.07C103.52 18.07 102.43 18.49 101.63 19.33C100.83 20.15 100.43 21.34 100.43 22.9V31H96.6797V8.74H100.43V16.84C101.05 16.18 101.81 15.68 102.71 15.34C103.63 14.98 104.65 14.8 105.77 14.8ZM123.337 14.8C125.697 14.8 127.497 15.37 128.737 16.51C129.997 17.63 130.627 19.33 130.627 21.61V31H127.087V29.05C126.627 29.75 125.967 30.29 125.107 30.67C124.267 31.03 123.247 31.21 122.047 31.21C120.847 31.21 119.797 31.01 118.897 30.61C117.997 30.19 117.297 29.62 116.797 28.9C116.317 28.16 116.077 27.33 116.077 26.41C116.077 24.97 116.607 23.82 117.667 22.96C118.747 22.08 120.437 21.64 122.737 21.64H126.877V21.4C126.877 20.28 126.537 19.42 125.857 18.82C125.197 18.22 124.207 17.92 122.887 17.92C121.987 17.92 121.097 18.06 120.217 18.34C119.357 18.62 118.627 19.01 118.027 19.51L116.557 16.78C117.397 16.14 118.407 15.65 119.587 15.31C120.767 14.97 122.017 14.8 123.337 14.8ZM122.827 28.48C123.767 28.48 124.597 28.27 125.317 27.85C126.057 27.41 126.577 26.79 126.877 25.99V24.13H123.007C120.847 24.13 119.767 24.84 119.767 26.26C119.767 26.94 120.037 27.48 120.577 27.88C121.117 28.28 121.867 28.48 122.827 28.48ZM144.529 14.8C146.549 14.8 148.169 15.39 149.389 16.57C150.609 17.75 151.219 19.5 151.219 21.82V31H147.469V22.3C147.469 20.9 147.139 19.85 146.479 19.15C145.819 18.43 144.879 18.07 143.659 18.07C142.279 18.07 141.189 18.49 140.389 19.33C139.589 20.15 139.189 21.34 139.189 22.9V31H135.439V14.98H139.009V17.05C139.629 16.31 140.409 15.75 141.349 15.37C142.289 14.99 143.349 14.8 144.529 14.8Z" fill="#222222"/>
</g>
<defs>
<filter id="filter0_d_4_8" x="158.625" y="5.84" width="137.986" height="37.19" filterUnits="userSpaceOnUse" color-interpolation-filters="sRGB">
<feFlood flood-opacity="0" result="BackgroundImageFix"/>
<feColorMatrix in="SourceAlpha" type="matrix" values="0 0 0 0 0 0 0 0 0 0 0 0 0 0 0 0 0 0 127 0" result="hardAlpha"/>
<feOffset dy="4"/>
<feGaussianBlur stdDeviation="2"/>
<feComposite in2="hardAlpha" operator="out"/>
<feColorMatrix type="matrix" values="0 0 0 0 0 0 0 0 0 0 0 0 0 0 0 0 0 0 0.25 0"/>
<feBlend mode="normal" in2="BackgroundImageFix" result="effect1_dropShadow_4_8"/>
<feBlend mode="normal" in="SourceGraphic" in2="effect1_dropShadow_4_8" result="shape"/>
</filter>
<filter id="filter1_d_4_8" x="1.5334" y="8.74" width="153.686" height="30.56" filterUnits="userSpaceOnUse" color-interpolation-filters="sRGB">
<feFlood flood-opacity="0" result="BackgroundImageFix"/>
<feColorMatrix in="SourceAlpha" type="matrix" values="0 0 0 0 0 0 0 0 0 0 0 0 0 0 0 0 0 0 127 0" result="hardAlpha"/>
<feOffset dy="4"/>
<feGaussianBlur stdDeviation="2"/>
<feComposite in2="hardAlpha" operator="out"/>
<feColorMatrix type="matrix" values="0 0 0 0 0 0 0 0 0 0 0 0 0 0 0 0 0 0 0.25 0"/>
<feBlend mode="normal" in2="BackgroundImageFix" result="effect1_dropShadow_4_8"/>
<feBlend mode="normal" in="SourceGraphic" in2="effect1_dropShadow_4_8" result="shape"/>
</filter>
</defs>
</svg>
